# xmcd
#
# Track frame offsets:
#	150
#	12189
#	27012
#	39282
#	49827
#	63964
#	76852
#	90918
#	104189
#	114523
#	127744
#	141658
#	156448
#	169255
#	182009
#	195138
#
# Disc length: 2791 seconds
#
# Revision: 0
# Processed by: cddbd v1.5.2PL0 Copyright (c) Steve Scherf et al.
# Submitted via: audiograbber 1.83.01
#
DISCID=c60ae510
DTITLE=Various Artist - Das waren Schlager 1933
DYEAR=1933
DGENRE=Retro
TTITLE0=Joseph Schmidt - Ein Lied geht um die Welt
TTITLE1=Comedien Harmonists - Night And Day
TTITLE2=Willy Fritsch - An der Donau, wenn der Wein blüht
TTITLE3=Hans Albers - Mein Gorilla hat 'ne Villa im Zoo
TTITLE4=Lilian Harvey - Wie hab' ich nur leben können ohne dich
TTITLE5=Comedian Harmonists - Kleiner Mann, was nun?
TTITLE6=Charles Kullman - Schön ist jeder Tag, den du mir schenkst, Marie Luise
TTITLE7=Hans Albers - Ich bin der Hans im Glück
TTITLE8=Die Weintraubs - Ich kauf' mir 'ne Rakete
TTITLE9=Willi Forst - So ein Mädel vergisst man nicht
TTITLE10=Anny Ondra - Ich lieb' dich, I Love You, je t'aime
TTITLE11=Jan Kiepura - Ninon
TTITLE12=Die Weintraubs - Gruss und Kuss Veronika
TTITLE13=Eric Harden - Bei der blonden Kathrein
TTITLE14=Die Weintraubs - Wenn wieder Frühling ist
TTITLE15=Jan Kiepura - Ich sing' mein Lied heut' nur für Dich
EXTD=
EXTT0=
EXTT1=
EXTT2=
EXTT3=
EXTT4=
EXTT5=
EXTT6=
EXTT7=
EXTT8=
EXTT9=
EXTT10=
EXTT11=
EXTT12=
EXTT13=
EXTT14=
EXTT15=
PLAYORDER=
